<svg xmlns="http://www.w3.org/2000/svg" width="420" height="165" viewBox="0 0 420 165">
<style>text{font-family:-apple-system,BlinkMacSystemFont,"Segoe UI",Helvetica,Arial,sans-serif}</style>
<rect x="0.5" y="0.5" width="419" height="164" rx="10" fill="#0d1117" stroke="#30363d"/>
<text x="22" y="34" font-size="18" font-weight="600" fill="#58a6ff">Top languages</text>
<text x="22" y="60" font-size="12" font-weight="600" fill="#e6edf3">Python</text>
<text x="382" y="60" text-anchor="end" font-size="11" fill="#8b949e">93.9%</text>
<rect x="145" y="51" width="205" height="8" rx="4" fill="#21262d"/>
<rect x="145" y="51" width="192" height="8" rx="4" fill="#2f81f7"/>
<text x="22" y="83" font-size="12" font-weight="600" fill="#e6edf3">HTML</text>
<text x="382" y="83" text-anchor="end" font-size="11" fill="#8b949e">2.6%</text>
<rect x="145" y="74" width="205" height="8" rx="4" fill="#21262d"/>
<rect x="145" y="74" width="5" height="8" rx="4" fill="#2f81f7"/>
<text x="22" y="106" font-size="12" font-weight="600" fill="#e6edf3">Shell</text>
<text x="382" y="106" text-anchor="end" font-size="11" fill="#8b949e">1.3%</text>
<rect x="145" y="97" width="205" height="8" rx="4" fill="#21262d"/>
<rect x="145" y="97" width="3" height="8" rx="4" fill="#2f81f7"/>
<text x="22" y="129" font-size="12" font-weight="600" fill="#e6edf3">CSS</text>
<text x="382" y="129" text-anchor="end" font-size="11" fill="#8b949e">1.2%</text>
<rect x="145" y="120" width="205" height="8" rx="4" fill="#21262d"/>
<rect x="145" y="120" width="2" height="8" rx="4" fill="#2f81f7"/>
<text x="22" y="152" font-size="12" font-weight="600" fill="#e6edf3">JavaScript</text>
<text x="382" y="152" text-anchor="end" font-size="11" fill="#8b949e">1.0%</text>
<rect x="145" y="143" width="205" height="8" rx="4" fill="#21262d"/>
<rect x="145" y="143" width="2" height="8" rx="4" fill="#2f81f7"/>
</svg>
