<svg xmlns="http://www.w3.org/2000/svg" width="420" height="165" viewBox="0 0 420 165">
<style>text{font-family:-apple-system,BlinkMacSystemFont,"Segoe UI",Helvetica,Arial,sans-serif}</style>
<rect x="0.5" y="0.5" width="419" height="164" rx="10" fill="#111a22" stroke="#26343e"/>
<text x="22" y="34" font-size="18" font-weight="600" fill="#80d7bd">Языки в проектах</text>
<text x="22" y="60" font-size="12" font-weight="600" fill="#edf4f1">Python</text>
<text x="382" y="60" text-anchor="end" font-size="11" fill="#9aaca8">83.4%</text>
<rect x="145" y="51" width="205" height="8" rx="4" fill="#26343e"/>
<rect x="145" y="51" width="171" height="8" rx="4" fill="#80d7bd"/>
<text x="22" y="83" font-size="12" font-weight="600" fill="#edf4f1">TypeScript</text>
<text x="382" y="83" text-anchor="end" font-size="11" fill="#9aaca8">7.4%</text>
<rect x="145" y="74" width="205" height="8" rx="4" fill="#26343e"/>
<rect x="145" y="74" width="15" height="8" rx="4" fill="#80d7bd"/>
<text x="22" y="106" font-size="12" font-weight="600" fill="#edf4f1">JavaScript</text>
<text x="382" y="106" text-anchor="end" font-size="11" fill="#9aaca8">4.9%</text>
<rect x="145" y="97" width="205" height="8" rx="4" fill="#26343e"/>
<rect x="145" y="97" width="10" height="8" rx="4" fill="#80d7bd"/>
<text x="22" y="129" font-size="12" font-weight="600" fill="#edf4f1">CSS</text>
<text x="382" y="129" text-anchor="end" font-size="11" fill="#9aaca8">2.3%</text>
<rect x="145" y="120" width="205" height="8" rx="4" fill="#26343e"/>
<rect x="145" y="120" width="5" height="8" rx="4" fill="#80d7bd"/>
<text x="22" y="152" font-size="12" font-weight="600" fill="#edf4f1">HTML</text>
<text x="382" y="152" text-anchor="end" font-size="11" fill="#9aaca8">1.9%</text>
<rect x="145" y="143" width="205" height="8" rx="4" fill="#26343e"/>
<rect x="145" y="143" width="4" height="8" rx="4" fill="#80d7bd"/>
</svg>
